<svg version="1.1" id="Layer_1" xmlns="http://www.w3.org/2000/svg" xmlns:xlink="http://www.w3.org/1999/xlink" x="0px" y="0px"
	 width="100%" viewBox="0 0 1250 250" enable-background="new 0 0 1250 250" xml:space="preserve">
<path fill="#000000" opacity="1.000000" stroke="none" 
	d="
M1.000000,25.000000 
	C1.000000,17.005257 1.000000,9.010513 1.000000,1.000000 
	C211.023315,1.000000 421.046631,1.000000 631.835632,1.346221 
	C626.928955,3.729571 621.300293,5.900651 615.573792,7.772174 
	C607.154419,10.523792 603.281494,17.055471 602.143555,25.025248 
	C600.851929,34.071365 602.769897,42.438618 610.777527,48.351711 
	C615.480652,51.824657 620.224487,55.437176 620.969971,61.843899 
	C622.401672,74.148933 623.813171,86.459763 624.959229,98.793640 
	C626.141846,111.520393 627.190369,124.265953 627.953552,137.023880 
	C629.123718,156.586258 630.009094,176.165756 630.995056,195.739029 
	C631.359619,202.976379 631.146912,210.286041 632.102356,217.441910 
	C634.496033,235.369324 646.183105,244.297913 663.559143,239.528381 
	C674.257935,236.591705 679.236267,229.679596 679.974304,217.196915 
	C680.463623,208.921402 680.704712,200.631180 681.068054,192.084488 
	C682.968994,193.836853 684.781067,194.934631 685.798523,196.536957 
	C693.291321,208.336533 700.431274,220.363831 708.081360,232.058365 
	C712.754089,239.201431 717.320435,246.758224 726.533447,249.181778 
	C726.828003,249.259262 726.850647,250.370605 727.000000,251.000000 
	C485.110840,251.000000 243.221680,251.000000 1.000000,251.000000 
	C1.000000,179.977020 1.000000,108.953522 1.317736,37.170021 
	C2.075960,36.873543 2.794235,37.274422 2.915045,37.810055 
	C4.582382,45.202488 9.505381,49.921951 15.843921,53.325665 
	C22.114862,56.693081 25.111492,61.621445 25.091616,68.845909 
	C25.073553,75.411537 25.284542,82.072327 26.386656,88.521629 
	C27.652912,95.931480 26.548506,102.280434 21.557455,107.964981 
	C11.616872,119.286819 11.099296,129.223953 18.698830,139.710266 
	C24.104662,147.169586 26.001465,154.693115 25.985893,163.281311 
	C25.956930,179.254822 25.534393,195.252686 29.008028,210.996414 
	C33.101685,229.550293 44.537090,238.804062 61.929340,241.902969 
	C70.736771,243.472260 79.704796,244.460022 88.640717,244.914871 
	C102.702370,245.630569 116.850571,246.579132 130.866028,245.768143 
	C147.481812,244.806656 153.996689,226.189362 148.811111,213.498383 
	C144.404404,202.713608 135.346863,198.889282 124.671593,198.058762 
	C112.854713,197.139420 101.006172,196.603271 89.165413,196.022980 
	C81.636513,195.654022 75.922234,192.615799 75.420830,186.642258 
	C74.615936,177.053101 74.860924,167.338715 75.294769,157.705750 
	C75.421623,154.889374 77.776466,152.568817 81.598648,152.926697 
	C85.233444,153.267029 88.945496,153.247086 92.587326,152.946396 
	C99.294518,152.392593 106.136810,152.791199 112.334747,149.029938 
	C120.080269,144.329514 125.413170,135.020340 123.883240,125.966949 
	C122.300003,116.598106 117.991791,108.485031 107.885864,106.116096 
	C100.507935,104.386635 92.829521,103.881699 85.261604,103.042358 
	C80.972778,102.566689 77.652489,101.227455 77.001266,96.409370 
	C76.632629,93.682030 76.203514,90.956039 75.997925,88.214722 
	C75.285599,78.716927 74.473045,69.220406 74.078522,59.707645 
	C73.880150,54.924465 77.288437,51.911999 82.133675,52.024197 
	C93.221489,52.280941 104.306374,52.922764 115.392342,52.920528 
	C124.580940,52.918678 131.192490,47.565742 135.271011,40.033512 
	C143.556000,24.732695 131.979218,6.939464 117.589966,5.043945 
	C110.472496,4.106351 103.296143,3.217491 96.134636,3.112724 
	C87.055389,2.979902 77.953987,3.496813 68.880409,4.039087 
	C54.623764,4.891123 40.382812,6.004642 26.134392,6.995650 
	C15.466505,7.737624 7.835331,12.744394 3.609226,22.751060 
	C3.208902,23.698956 1.891588,24.259579 1.000000,25.000000 
M425.001129,174.030777 
	C425.334351,167.630692 424.825623,161.043121 426.199158,154.874680 
	C428.232452,145.743134 431.851715,137.155853 440.034363,131.278473 
	C442.515015,129.496674 444.228516,129.788086 445.285553,131.927292 
	C446.883484,135.160980 448.391418,138.651535 448.875824,142.178757 
	C449.879028,149.483246 452.167694,156.275772 457.877075,160.853821 
	C465.492828,166.960510 474.503632,168.188324 483.457336,164.008286 
	C493.177368,159.470520 497.531250,150.996475 497.950958,140.580109 
	C498.522003,126.407204 493.490845,113.978920 485.257507,102.703545 
	C472.599854,85.369156 455.091034,78.331261 434.369141,81.241623 
	C414.849731,83.983078 401.236938,96.399925 390.863312,112.573563 
	C383.467590,124.104324 379.009491,136.580841 376.730103,150.211990 
	C374.610596,162.887329 374.202301,175.393143 377.432190,187.616974 
	C382.437012,206.558517 392.330994,222.679886 408.212006,234.739655 
	C417.989899,242.164795 428.830780,246.438217 441.177094,247.041977 
	C453.409760,247.640182 464.875702,245.223938 474.735382,237.907532 
	C481.236359,233.083450 487.953644,227.968491 492.781494,221.620468 
	C498.731354,213.797272 496.564819,201.111694 491.070190,194.407043 
	C483.004089,184.564606 469.648590,184.045441 461.362854,188.333771 
	C456.519409,190.840530 452.200958,194.395691 447.284363,196.710434 
	C445.295105,197.646973 441.890869,197.334381 439.905029,196.215561 
	C431.653961,191.566879 428.027466,183.401733 425.001129,174.030777 
M224.404129,189.074936 
	C225.271027,187.183655 226.137451,185.292160 227.004868,183.401123 
	C233.901306,168.366058 241.993973,154.233093 256.480713,145.051620 
	C265.036285,139.629242 273.786530,134.506744 282.237915,128.929199 
	C292.435028,122.199577 293.926788,104.102432 285.756042,95.120102 
	C276.853577,85.333344 264.838562,84.503288 253.285950,90.443398 
	C242.865814,95.801216 232.938019,102.117157 222.798309,108.019554 
	C217.163147,111.299820 216.713806,111.364952 215.106247,105.029243 
	C212.485458,94.700081 206.119370,88.609749 195.861496,86.338943 
	C181.247391,83.103790 169.487579,94.246117 168.150681,105.216553 
	C167.074890,114.044373 167.005234,123.036636 167.058670,131.952515 
	C167.230011,160.537338 167.607193,189.121552 168.082703,217.703033 
	C168.135010,220.846893 168.789291,224.224762 170.102020,227.059982 
	C174.943024,237.515549 182.835587,243.022537 194.919159,242.101822 
	C202.795029,241.501709 212.888336,234.910110 214.926727,227.244064 
	C218.227417,214.830826 221.021103,202.282776 224.404129,189.074936 
M316.778290,104.020103 
	C311.948975,107.895683 308.117584,112.173943 307.879028,118.985710 
	C307.622314,126.316460 306.079987,133.623993 306.100830,140.938797 
	C306.179382,168.487305 307.030823,196.036957 306.854858,223.581467 
	C306.758331,238.692505 322.270447,251.306274 337.487549,247.079330 
	C346.706909,244.518417 355.000000,234.719025 355.000000,225.193756 
	C355.000000,190.737579 355.089630,156.280807 354.862915,121.826126 
	C354.839935,118.335632 353.404785,114.605042 351.777557,111.418610 
	C345.476898,99.080498 328.279266,96.449104 316.778290,104.020103 
M315.786285,27.018936 
	C313.519165,29.059561 311.066559,30.930784 309.019257,33.172199 
	C302.572418,40.230335 304.344116,49.040249 303.925873,57.452736 
	C303.508759,65.842834 306.800903,71.879517 313.358307,76.999512 
	C325.569733,86.534073 343.178711,81.491898 349.042755,68.972626 
	C353.530304,59.391998 352.958923,49.779350 350.025452,40.018768 
	C345.722107,25.700270 329.241302,19.789606 315.786285,27.018936 
z"/>
<path fill="#000000" opacity="1.000000" stroke="none" 
	d="
M1251.000000,204.000000 
	C1251.000000,219.650177 1251.000000,235.300354 1251.000000,251.000000 
	C1128.312500,251.000000 1005.624878,251.000000 882.177246,250.697067 
	C883.960388,248.753357 886.612427,247.257645 889.027405,245.445816 
	C897.987854,238.723328 898.287354,229.008270 896.619629,219.482635 
	C894.877014,209.529358 885.564514,203.125977 875.406189,202.959045 
	C867.653076,202.831635 859.869812,202.686737 852.167175,201.895248 
	C845.053223,201.164261 839.133850,197.755371 834.070862,190.879532 
	C837.979736,190.147369 841.031799,189.159302 844.107544,189.078964 
	C852.765991,188.852783 861.434448,189.042343 870.098511,188.991028 
	C887.611877,188.887299 898.740967,179.802307 903.935852,164.415985 
	C907.209717,154.719482 907.627075,144.791779 906.132996,134.527206 
	C903.487793,116.354660 896.207703,101.378525 880.548645,90.847099 
	C863.848145,79.615250 846.031006,79.669273 827.756653,85.060585 
	C805.914917,91.504349 789.841187,105.298447 779.280884,125.385796 
	C771.367737,140.437927 771.707092,157.004440 773.383789,172.994064 
	C775.103638,189.394714 782.063782,204.465836 791.969299,217.958694 
	C803.316345,233.415085 817.924255,244.055878 836.533447,249.070679 
	C837.150757,249.237045 837.516785,250.335846 838.000000,251.000000 
	C805.979126,251.000000 773.958191,251.000000 741.174500,250.687424 
	C740.609192,250.106918 740.748108,249.709427 741.012756,249.589645 
	C756.265747,242.685440 762.583130,228.067993 753.906128,212.961472 
	C745.258789,197.906464 735.971619,183.215958 726.830994,168.448547 
	C722.750366,161.855835 722.552673,158.580063 728.102051,153.553802 
	C737.499756,145.042023 743.816833,134.506332 748.912598,123.190071 
	C754.639771,110.471405 755.832336,96.806976 753.508972,83.339127 
	C750.485229,65.811180 741.589294,50.663628 729.850708,37.553925 
	C713.884155,19.722401 694.430420,7.337342 670.467285,2.918705 
	C669.880249,2.810452 669.484802,1.662844 669.000000,0.999996 
	C862.881775,1.000000 1056.763550,1.000000 1251.000000,1.000000 
	C1251.000000,46.020275 1251.000000,91.041481 1250.630493,136.648209 
	C1249.896118,139.489212 1249.531372,141.744690 1249.086548,144.383911 
	C1248.336426,146.349762 1247.220093,147.890900 1247.070435,149.520813 
	C1246.249634,158.463516 1245.481201,167.419250 1245.058594,176.387665 
	C1244.721436,183.539490 1245.800415,190.534958 1249.089844,197.406387 
	C1249.675171,199.868011 1250.337646,201.934006 1251.000000,204.000000 
M925.000305,84.500000 
	C925.000244,109.829720 924.874512,135.160263 925.041077,160.488876 
	C925.166565,179.573425 925.570068,198.658157 926.091736,217.736176 
	C926.182068,221.038300 926.861938,224.615005 928.321045,227.540466 
	C936.068848,243.075272 955.325256,245.496414 967.929077,233.486298 
	C972.318115,229.303970 975.033630,228.283417 980.122620,231.759323 
	C992.672119,240.330780 1006.402527,241.995178 1020.703003,238.892838 
	C1040.026855,234.700729 1054.244507,223.712708 1062.008545,205.132095 
	C1065.987915,195.608871 1067.075073,185.565170 1068.244019,175.365402 
	C1069.858521,161.276627 1069.251587,147.323837 1066.624756,133.668808 
	C1063.426758,117.044693 1055.976196,102.220245 1042.050537,91.557671 
	C1030.383911,82.624741 1017.260010,78.482361 1002.759277,81.842445 
	C993.782410,83.922554 985.155334,87.512405 975.662598,90.659470 
	C975.228699,89.437103 974.123108,87.719421 974.076172,85.973259 
	C973.616638,68.893204 973.333435,51.808399 973.001221,34.724922 
	C972.994751,34.391766 973.032166,34.054920 972.996094,33.725601 
	C972.533936,29.506588 972.478638,25.190151 971.509521,21.090061 
	C969.203674,11.335155 961.675354,7.265600 952.745972,5.350129 
	C939.701538,2.551920 925.309753,13.183860 925.082458,26.509581 
	C924.758667,45.501335 925.000244,64.502724 925.000305,84.500000 
M1204.503174,107.953308 
	C1201.219727,106.713905 1197.834473,105.689682 1194.672607,104.193436 
	C1186.290283,100.226891 1178.141479,95.742256 1169.648315,92.041023 
	C1157.079102,86.563538 1143.989868,86.078812 1131.263184,91.077553 
	C1116.873535,96.729492 1106.614014,107.556305 1099.654907,121.006523 
	C1088.521851,142.523788 1083.675049,165.447220 1086.995605,189.751160 
	C1089.791016,210.210007 1098.478760,226.707199 1117.289307,237.114792 
	C1134.051025,246.388718 1150.084839,244.855957 1166.000122,235.471725 
	C1169.696655,233.292160 1173.217773,230.815140 1177.075073,228.309052 
	C1178.258789,230.595993 1179.225342,232.229355 1179.978271,233.955887 
	C1184.505249,244.338287 1197.260986,251.713928 1209.206421,248.091766 
	C1217.408813,245.604630 1226.966797,236.527832 1226.090576,226.812561 
	C1224.747803,211.924103 1223.853149,196.989883 1223.043091,182.060181 
	C1222.193359,166.401184 1221.512085,150.729202 1221.050293,135.054276 
	C1220.697144,123.064186 1216.945068,113.302238 1204.503174,107.953308 
z"/>
<path fill="#FFFBFB" opacity="1.000000" stroke="none" 
	d="
M668.531372,0.999996 
	C669.484802,1.662844 669.880249,2.810452 670.467285,2.918705 
	C694.430420,7.337342 713.884155,19.722401 729.850708,37.553925 
	C741.589294,50.663628 750.485229,65.811180 753.508972,83.339127 
	C755.832336,96.806976 754.639771,110.471405 748.912598,123.190071 
	C743.816833,134.506332 737.499756,145.042023 728.102051,153.553802 
	C722.552673,158.580063 722.750366,161.855835 726.830994,168.448547 
	C735.971619,183.215958 745.258789,197.906464 753.906128,212.961472 
	C762.583130,228.067993 756.265747,242.685440 741.012756,249.589645 
	C740.748108,249.709427 740.609192,250.106918 740.705811,250.687424 
	C736.643127,251.000000 732.286194,251.000000 727.464661,251.000000 
	C726.850647,250.370605 726.828003,249.259262 726.533447,249.181778 
	C717.320435,246.758224 712.754089,239.201431 708.081360,232.058365 
	C700.431274,220.363831 693.291321,208.336533 685.798523,196.536957 
	C684.781067,194.934631 682.968994,193.836853 681.068054,192.084488 
	C680.704712,200.631180 680.463623,208.921402 679.974304,217.196915 
	C679.236267,229.679596 674.257935,236.591705 663.559143,239.528381 
	C646.183105,244.297913 634.496033,235.369324 632.102356,217.441910 
	C631.146912,210.286041 631.359619,202.976379 630.995056,195.739029 
	C630.009094,176.165756 629.123718,156.586258 627.953552,137.023880 
	C627.190369,124.265953 626.141846,111.520393 624.959229,98.793640 
	C623.813171,86.459763 622.401672,74.148933 620.969971,61.843899 
	C620.224487,55.437176 615.480652,51.824657 610.777527,48.351711 
	C602.769897,42.438618 600.851929,34.071365 602.143555,25.025248 
	C603.281494,17.055471 607.154419,10.523792 615.573792,7.772174 
	C621.300293,5.900651 626.928955,3.729571 632.300659,1.346221 
	C644.020874,1.000000 656.041809,1.000000 668.531372,0.999996 
M696.983765,75.014183 
	C696.983765,75.014183 696.939453,75.094933 696.966309,74.353302 
	C694.374390,69.050797 691.007019,64.576485 684.241394,62.785736 
	C680.554443,60.506435 676.867493,58.227135 672.000305,55.218220 
	C672.000305,60.845955 671.851440,64.458427 672.027466,68.055000 
	C672.623169,80.225479 673.222351,92.397949 674.052124,104.553825 
	C674.417114,109.899460 675.019531,115.272835 676.094299,120.514656 
	C677.364380,126.709045 679.546448,127.480087 684.380127,124.571396 
	C689.839478,121.286240 694.710632,116.601395 698.892639,111.716339 
	C704.920288,104.675270 706.278259,96.142067 704.218079,86.473961 
	C704.428711,81.766731 700.747314,76.021805 696.983765,75.014183 
z"/>
<path fill="#FFFBFB" opacity="1.000000" stroke="none" 
	d="
M1.000000,25.460636 
	C1.891588,24.259579 3.208902,23.698956 3.609226,22.751060 
	C7.835331,12.744394 15.466505,7.737624 26.134392,6.995650 
	C40.382812,6.004642 54.623764,4.891123 68.880409,4.039087 
	C77.953987,3.496813 87.055389,2.979902 96.134636,3.112724 
	C103.296143,3.217491 110.472496,4.106351 117.589966,5.043945 
	C131.979218,6.939464 143.556000,24.732695 135.271011,40.033512 
	C131.192490,47.565742 124.580940,52.918678 115.392342,52.920528 
	C104.306374,52.922764 93.221489,52.280941 82.133675,52.024197 
	C77.288437,51.911999 73.880150,54.924465 74.078522,59.707645 
	C74.473045,69.220406 75.285599,78.716927 75.997925,88.214722 
	C76.203514,90.956039 76.632629,93.682030 77.001266,96.409370 
	C77.652489,101.227455 80.972778,102.566689 85.261604,103.042358 
	C92.829521,103.881699 100.507935,104.386635 107.885864,106.116096 
	C117.991791,108.485031 122.300003,116.598106 123.883240,125.966949 
	C125.413170,135.020340 120.080269,144.329514 112.334747,149.029938 
	C106.136810,152.791199 99.294518,152.392593 92.587326,152.946396 
	C88.945496,153.247086 85.233444,153.267029 81.598648,152.926697 
	C77.776466,152.568817 75.421623,154.889374 75.294769,157.705750 
	C74.860924,167.338715 74.615936,177.053101 75.420830,186.642258 
	C75.922234,192.615799 81.636513,195.654022 89.165413,196.022980 
	C101.006172,196.603271 112.854713,197.139420 124.671593,198.058762 
	C135.346863,198.889282 144.404404,202.713608 148.811111,213.498383 
	C153.996689,226.189362 147.481812,244.806656 130.866028,245.768143 
	C116.850571,246.579132 102.702370,245.630569 88.640717,244.914871 
	C79.704796,244.460022 70.736771,243.472260 61.929340,241.902969 
	C44.537090,238.804062 33.101685,229.550293 29.008028,210.996414 
	C25.534393,195.252686 25.956930,179.254822 25.985893,163.281311 
	C26.001465,154.693115 24.104662,147.169586 18.698830,139.710266 
	C11.099296,129.223953 11.616872,119.286819 21.557455,107.964981 
	C26.548506,102.280434 27.652912,95.931480 26.386656,88.521629 
	C25.284542,82.072327 25.073553,75.411537 25.091616,68.845909 
	C25.111492,61.621445 22.114862,56.693081 15.843921,53.325665 
	C9.505381,49.921951 4.582382,45.202488 2.915045,37.810055 
	C2.794235,37.274422 2.075960,36.873543 1.317736,36.705006 
	C1.000000,33.307091 1.000000,29.614182 1.000000,25.460636 
z"/>
<path fill="#FFFBFB" opacity="1.000000" stroke="none" 
	d="
M838.468628,251.000000 
	C837.516785,250.335846 837.150757,249.237045 836.533447,249.070679 
	C817.924255,244.055878 803.316345,233.415085 791.969299,217.958694 
	C782.063782,204.465836 775.103638,189.394714 773.383789,172.994064 
	C771.707092,157.004440 771.367737,140.437927 779.280884,125.385796 
	C789.841187,105.298447 805.914917,91.504349 827.756653,85.060585 
	C846.031006,79.669273 863.848145,79.615250 880.548645,90.847099 
	C896.207703,101.378525 903.487793,116.354660 906.132996,134.527206 
	C907.627075,144.791779 907.209717,154.719482 903.935852,164.415985 
	C898.740967,179.802307 887.611877,188.887299 870.098511,188.991028 
	C861.434448,189.042343 852.765991,188.852783 844.107544,189.078964 
	C841.031799,189.159302 837.979736,190.147369 834.070862,190.879532 
	C839.133850,197.755371 845.053223,201.164261 852.167175,201.895248 
	C859.869812,202.686737 867.653076,202.831635 875.406189,202.959045 
	C885.564514,203.125977 894.877014,209.529358 896.619629,219.482635 
	C898.287354,229.008270 897.987854,238.723328 889.027405,245.445816 
	C886.612427,247.257645 883.960388,248.753357 881.708557,250.697067 
	C867.645752,251.000000 853.291565,251.000000 838.468628,251.000000 
M834.196777,139.999954 
	C840.584412,139.714890 846.978882,139.524429 853.353760,139.062927 
	C854.589905,138.973450 855.749451,137.826508 856.944336,137.167313 
	C855.951355,135.437820 855.096680,133.602890 853.897949,132.030197 
	C853.412781,131.393677 852.198975,131.142456 851.279297,131.034363 
	C844.238770,130.206879 838.453796,133.587860 832.721924,136.881287 
	C830.859131,137.951630 830.578979,139.473434 834.196777,139.999954 
z"/>
<path fill="#FFFBFB" opacity="1.000000" stroke="none" 
	d="
M1249.166748,197.010757 
	C1245.800415,190.534958 1244.721436,183.539490 1245.058594,176.387665 
	C1245.481201,167.419250 1246.249634,158.463516 1247.070435,149.520813 
	C1247.220093,147.890900 1248.336426,146.349762 1249.392090,144.383820 
	C1250.185181,143.999985 1250.592651,143.999985 1251.000000,144.000000 
	C1251.000000,161.687561 1251.000000,179.375122 1250.757568,197.434387 
	C1250.065552,197.540970 1249.616211,197.275848 1249.166748,197.010757 
z"/>
<path fill="#FFFBFB" opacity="1.000000" stroke="none" 
	d="
M1251.000000,143.562500 
	C1250.592651,143.999985 1250.185181,143.999985 1249.472168,144.000092 
	C1249.531372,141.744690 1249.896118,139.489212 1250.630493,137.116867 
	C1251.000000,139.041672 1251.000000,141.083328 1251.000000,143.562500 
z"/>
<path fill="#FFFBFB" opacity="1.000000" stroke="none" 
	d="
M1249.089844,197.406372 
	C1249.616211,197.275848 1250.065552,197.540970 1250.757568,197.903046 
	C1251.000000,199.714355 1251.000000,201.428711 1251.000000,203.571533 
	C1250.337646,201.934006 1249.675171,199.868011 1249.089844,197.406372 
z"/>
<path fill="#FFFBFB" opacity="1.000000" stroke="none" 
	d="
M425.009094,174.479523 
	C428.027466,183.401733 431.653961,191.566879 439.905029,196.215561 
	C441.890869,197.334381 445.295105,197.646973 447.284363,196.710434 
	C452.200958,194.395691 456.519409,190.840530 461.362854,188.333771 
	C469.648590,184.045441 483.004089,184.564606 491.070190,194.407043 
	C496.564819,201.111694 498.731354,213.797272 492.781494,221.620468 
	C487.953644,227.968491 481.236359,233.083450 474.735382,237.907532 
	C464.875702,245.223938 453.409760,247.640182 441.177094,247.041977 
	C428.830780,246.438217 417.989899,242.164795 408.212006,234.739655 
	C392.330994,222.679886 382.437012,206.558517 377.432190,187.616974 
	C374.202301,175.393143 374.610596,162.887329 376.730103,150.211990 
	C379.009491,136.580841 383.467590,124.104324 390.863312,112.573563 
	C401.236938,96.399925 414.849731,83.983078 434.369141,81.241623 
	C455.091034,78.331261 472.599854,85.369156 485.257507,102.703545 
	C493.490845,113.978920 498.522003,126.407204 497.950958,140.580109 
	C497.531250,150.996475 493.177368,159.470520 483.457336,164.008286 
	C474.503632,168.188324 465.492828,166.960510 457.877075,160.853821 
	C452.167694,156.275772 449.879028,149.483246 448.875824,142.178757 
	C448.391418,138.651535 446.883484,135.160980 445.285553,131.927292 
	C444.228516,129.788086 442.515015,129.496674 440.034363,131.278473 
	C431.851715,137.155853 428.232452,145.743134 426.199158,154.874680 
	C424.825623,161.043121 425.334351,167.630692 425.009094,174.479523 
z"/>
<path fill="#FFFBFB" opacity="1.000000" stroke="none" 
	d="
M224.216492,189.433289 
	C221.021103,202.282776 218.227417,214.830826 214.926727,227.244064 
	C212.888336,234.910110 202.795029,241.501709 194.919159,242.101822 
	C182.835587,243.022537 174.943024,237.515549 170.102020,227.059982 
	C168.789291,224.224762 168.135010,220.846893 168.082703,217.703033 
	C167.607193,189.121552 167.230011,160.537338 167.058670,131.952515 
	C167.005234,123.036636 167.074890,114.044373 168.150681,105.216553 
	C169.487579,94.246117 181.247391,83.103790 195.861496,86.338943 
	C206.119370,88.609749 212.485458,94.700081 215.106247,105.029243 
	C216.713806,111.364952 217.163147,111.299820 222.798309,108.019554 
	C232.938019,102.117157 242.865814,95.801216 253.285950,90.443398 
	C264.838562,84.503288 276.853577,85.333344 285.756042,95.120102 
	C293.926788,104.102432 292.435028,122.199577 282.237915,128.929199 
	C273.786530,134.506744 265.036285,139.629242 256.480713,145.051620 
	C241.993973,154.233093 233.901306,168.366058 227.004868,183.401123 
	C226.137451,185.292160 225.271027,187.183655 224.216492,189.433289 
z"/>
<path fill="#FFFBFB" opacity="1.000000" stroke="none" 
	d="
M317.156189,103.979279 
	C328.279266,96.449104 345.476898,99.080498 351.777557,111.418610 
	C353.404785,114.605042 354.839935,118.335632 354.862915,121.826126 
	C355.089630,156.280807 355.000000,190.737579 355.000000,225.193756 
	C355.000000,234.719025 346.706909,244.518417 337.487549,247.079330 
	C322.270447,251.306274 306.758331,238.692505 306.854858,223.581467 
	C307.030823,196.036957 306.179382,168.487305 306.100830,140.938797 
	C306.079987,133.623993 307.622314,126.316460 307.879028,118.985710 
	C308.117584,112.173943 311.948975,107.895683 317.156189,103.979279 
z"/>
<path fill="#FFFBFB" opacity="1.000000" stroke="none" 
	d="
M316.172119,26.971329 
	C329.241302,19.789606 345.722107,25.700270 350.025452,40.018768 
	C352.958923,49.779350 353.530304,59.391998 349.042755,68.972626 
	C343.178711,81.491898 325.569733,86.534073 313.358307,76.999512 
	C306.800903,71.879517 303.508759,65.842834 303.925873,57.452736 
	C304.344116,49.040249 302.572418,40.230335 309.019257,33.172199 
	C311.066559,30.930784 313.519165,29.059561 316.172119,26.971329 
z"/>
<path fill="#FFFBFB" opacity="1.000000" stroke="none" 
	d="
M925.000305,84.000000 
	C925.000244,64.502724 924.758667,45.501335 925.082458,26.509581 
	C925.309753,13.183860 939.701538,2.551920 952.745972,5.350129 
	C961.675354,7.265600 969.203674,11.335155 971.509521,21.090061 
	C972.478638,25.190151 972.533936,29.506588 972.996094,33.725601 
	C973.032166,34.054920 972.994751,34.391766 973.001221,34.724922 
	C973.333435,51.808399 973.616638,68.893204 974.076172,85.973259 
	C974.123108,87.719421 975.228699,89.437103 975.662598,90.659470 
	C985.155334,87.512405 993.782410,83.922554 1002.759277,81.842445 
	C1017.260010,78.482361 1030.383911,82.624741 1042.050537,91.557671 
	C1055.976196,102.220245 1063.426758,117.044693 1066.624756,133.668808 
	C1069.251587,147.323837 1069.858521,161.276627 1068.244019,175.365402 
	C1067.075073,185.565170 1065.987915,195.608871 1062.008545,205.132095 
	C1054.244507,223.712708 1040.026855,234.700729 1020.703003,238.892838 
	C1006.402527,241.995178 992.672119,240.330780 980.122620,231.759323 
	C975.033630,228.283417 972.318115,229.303970 967.929077,233.486298 
	C955.325256,245.496414 936.068848,243.075272 928.321045,227.540466 
	C926.861938,224.615005 926.182068,221.038300 926.091736,217.736176 
	C925.570068,198.658157 925.166565,179.573425 925.041077,160.488876 
	C924.874512,135.160263 925.000244,109.829720 925.000305,84.000000 
M998.417358,178.934387 
	C1000.815308,181.991104 1003.039734,185.206406 1005.653198,188.066132 
	C1009.279358,192.034073 1011.135681,191.909134 1014.695312,187.728729 
	C1015.703857,186.544312 1016.478271,185.035385 1016.957825,183.545776 
	C1020.425903,172.773666 1020.575867,161.594955 1019.773865,150.536758 
	C1019.381409,145.126144 1017.119446,139.711319 1014.969910,134.607376 
	C1012.835815,129.539917 1010.784485,129.296310 1006.819458,132.725754 
	C1004.909546,134.377609 1002.946106,136.083984 1001.475891,138.106537 
	C996.450195,145.020264 990.566040,151.946228 992.183960,161.202698 
	C993.207397,167.058411 996.018066,172.601746 998.417358,178.934387 
z"/>
<path fill="#FFFBFB" opacity="1.000000" stroke="none" 
	d="
M1204.893555,107.990204 
	C1216.945068,113.302238 1220.697144,123.064186 1221.050293,135.054276 
	C1221.512085,150.729202 1222.193359,166.401184 1223.043091,182.060181 
	C1223.853149,196.989883 1224.747803,211.924103 1226.090576,226.812561 
	C1226.966797,236.527832 1217.408813,245.604630 1209.206421,248.091766 
	C1197.260986,251.713928 1184.505249,244.338287 1179.978271,233.955887 
	C1179.225342,232.229355 1178.258789,230.595993 1177.075073,228.309052 
	C1173.217773,230.815140 1169.696655,233.292160 1166.000122,235.471725 
	C1150.084839,244.855957 1134.051025,246.388718 1117.289307,237.114792 
	C1098.478760,226.707199 1089.791016,210.210007 1086.995605,189.751160 
	C1083.675049,165.447220 1088.521851,142.523788 1099.654907,121.006523 
	C1106.614014,107.556305 1116.873535,96.729492 1131.263184,91.077553 
	C1143.989868,86.078812 1157.079102,86.563538 1169.648315,92.041023 
	C1178.141479,95.742256 1186.290283,100.226891 1194.672607,104.193436 
	C1197.834473,105.689682 1201.219727,106.713905 1204.893555,107.990204 
M1138.016235,191.985657 
	C1138.016235,191.985657 1138.060425,191.904938 1138.046509,192.688080 
	C1138.644775,196.227402 1141.424805,195.556488 1142.791992,194.234756 
	C1144.394897,192.685196 1144.948364,190.050140 1146.088501,187.389542 
	C1146.377197,187.222427 1146.665894,187.055328 1147.322266,187.389755 
	C1147.762939,187.373428 1148.481323,187.522430 1148.603882,187.316650 
	C1152.366211,180.997025 1156.253906,174.738571 1159.657227,168.227646 
	C1160.531250,166.555435 1159.850342,164.070374 1159.991821,161.137634 
	C1162.520508,152.790878 1164.274536,144.828934 1154.760742,139.102768 
	C1150.349487,136.447708 1148.557983,136.142151 1145.819580,140.623001 
	C1136.480103,155.904602 1132.129272,172.121506 1136.626465,190.294373 
	C1137.116577,190.843369 1137.606812,191.392349 1138.016235,191.985657 
z"/>
<path fill="#000000" opacity="1.000000" stroke="none" 
	d="
M703.955261,87.111893 
	C706.278259,96.142067 704.920288,104.675270 698.892639,111.716339 
	C694.710632,116.601395 689.839478,121.286240 684.380127,124.571396 
	C679.546448,127.480087 677.364380,126.709045 676.094299,120.514656 
	C675.019531,115.272835 674.417114,109.899460 674.052124,104.553825 
	C673.222351,92.397949 672.623169,80.225479 672.027466,68.055000 
	C671.851440,64.458427 672.000305,60.845955 672.000305,55.218220 
	C676.867493,58.227135 680.554443,60.506435 684.689575,63.228748 
	C689.071655,67.479485 693.005554,71.287209 696.939453,75.094933 
	C696.939453,75.094933 696.983765,75.014183 696.989929,75.395950 
	C699.315796,79.555779 701.635559,83.333832 703.955261,87.111893 
z"/>
<path fill="#FFFBFB" opacity="1.000000" stroke="none" 
	d="
M696.952881,74.724121 
	C693.005554,71.287209 689.071655,67.479485 685.011963,63.357426 
	C691.007019,64.576485 694.374390,69.050797 696.952881,74.724121 
z"/>
<path fill="#FFFBFB" opacity="1.000000" stroke="none" 
	d="
M704.086670,86.792923 
	C701.635559,83.333832 699.315796,79.555779 696.949585,75.418228 
	C700.747314,76.021805 704.428711,81.766731 704.086670,86.792923 
z"/>
<path fill="#000000" opacity="1.000000" stroke="none" 
	d="
M833.774902,139.998550 
	C830.578979,139.473434 830.859131,137.951630 832.721924,136.881287 
	C838.453796,133.587860 844.238770,130.206879 851.279297,131.034363 
	C852.198975,131.142456 853.412781,131.393677 853.897949,132.030197 
	C855.096680,133.602890 855.951355,135.437820 856.944336,137.167328 
	C855.749451,137.826508 854.589905,138.973450 853.353760,139.062927 
	C846.978882,139.524429 840.584412,139.714890 833.774902,139.998550 
z"/>
<path fill="#000000" opacity="1.000000" stroke="none" 
	d="
M998.222229,178.609787 
	C996.018066,172.601746 993.207397,167.058411 992.183960,161.202698 
	C990.566040,151.946228 996.450195,145.020264 1001.475891,138.106537 
	C1002.946106,136.083984 1004.909546,134.377609 1006.819458,132.725754 
	C1010.784485,129.296310 1012.835815,129.539917 1014.969910,134.607376 
	C1017.119446,139.711319 1019.381409,145.126144 1019.773865,150.536758 
	C1020.575867,161.594955 1020.425903,172.773666 1016.957825,183.545776 
	C1016.478271,185.035385 1015.703857,186.544312 1014.695312,187.728729 
	C1011.135681,191.909134 1009.279358,192.034073 1005.653198,188.066132 
	C1003.039734,185.206406 1000.815308,181.991104 998.222229,178.609787 
z"/>
<path fill="#000000" opacity="1.000000" stroke="none" 
	d="
M1146.954590,186.888245 
	C1146.665894,187.055328 1146.377197,187.222427 1145.708252,187.763687 
	C1142.775391,189.142334 1142.553833,194.644363 1138.060425,191.904938 
	C1138.060425,191.904938 1138.016235,191.985657 1138.010742,191.658493 
	C1137.708252,190.873138 1137.411011,190.414948 1137.113892,189.956757 
	C1132.129272,172.121506 1136.480103,155.904602 1145.819580,140.623001 
	C1148.557983,136.142151 1150.349487,136.447708 1154.760742,139.102768 
	C1164.274536,144.828934 1162.520508,152.790878 1159.604248,161.703293 
	C1155.129150,170.475388 1151.041870,178.681824 1146.954590,186.888245 
z"/>
<path fill="#FFFBFB" opacity="1.000000" stroke="none" 
	d="
M1147.138428,187.139008 
	C1151.041870,178.681824 1155.129150,170.475388 1159.550293,162.113861 
	C1159.850342,164.070374 1160.531250,166.555435 1159.657227,168.227646 
	C1156.253906,174.738571 1152.366211,180.997025 1148.603882,187.316650 
	C1148.481323,187.522430 1147.762939,187.373428 1147.138428,187.139008 
z"/>
<path fill="#FFFBFB" opacity="1.000000" stroke="none" 
	d="
M1138.053467,192.296509 
	C1142.553833,194.644363 1142.775391,189.142334 1145.642578,188.011871 
	C1144.948364,190.050140 1144.394897,192.685196 1142.791992,194.234756 
	C1141.424805,195.556488 1138.644775,196.227402 1138.053467,192.296509 
z"/>
<path fill="#FFFBFB" opacity="1.000000" stroke="none" 
	d="
M1136.870117,190.125565 
	C1137.411011,190.414948 1137.708252,190.873138 1138.051147,191.636337 
	C1137.606812,191.392349 1137.116577,190.843369 1136.870117,190.125565 
z"/>
</svg>